<svg id="Layer_1" enable-background="new 0 0 511.794 511.794" height="512" viewBox="0 0 511.794 511.794" width="512" xmlns="http://www.w3.org/2000/svg"><path d="m20 511.793c-5.278 0-10.401-2.092-14.189-5.905-4.646-4.679-6.688-11.346-5.459-17.823l17.391-91.651c.012-.063.024-.128.037-.191 8.769-43.872 30.139-83.787 61.794-115.406l182.369-180.247c7.856-7.764 20.52-7.69 28.284.166 7.765 7.856 7.69 20.519-.166 28.284l-182.325 180.2c-25.963 25.978-43.498 58.736-50.714 94.746l-11.937 62.91 63.341-11.576c36.047-7.236 68.835-24.815 94.816-50.831l150.292-148.381c10.256-10.213 10.357-27.029.165-37.425l-36.013-36.902c-7.715-7.905-7.561-20.567.345-28.282 7.905-7.716 20.567-7.562 28.282.345l35.981 36.869c25.482 25.992 25.229 68.085-.597 93.8l-150.3 148.389c-31.603 31.587-71.468 52.915-115.286 61.674-.108.021-.216.042-.324.062l-92.192 16.85c-1.196.217-2.4.325-3.595.325zm139.142-110.858c7.811-7.811 7.811-20.475 0-28.285l-20-20c-19.512-18.017-46.293 8.795-28.284 28.285l20 20c3.905 3.905 9.023 5.857 14.142 5.857s10.237-1.952 14.142-5.857zm303.819-197.869 18.011-20.301c41.269-40.06 41.068-111.674-.441-151.503-39.994-41.681-111.954-41.68-151.946.001-.289.287-13.565 15.279-13.565 15.279-7.318 8.274-6.543 20.914 1.73 28.231s20.912 6.543 28.231-1.73l12.295-13.901c25.166-25.783 70.015-25.604 94.97.405 26.163 25.103 26.164 70.274-.001 95.377-.28.281-19.207 21.595-19.207 21.595-7.331 8.263-6.575 20.904 1.688 28.234 3.808 3.379 8.545 5.04 13.266 5.039 5.521.001 11.018-2.272 14.969-6.726z"/></svg>